<svg width="46" height="107" viewBox="0 0 46 107" fill="none" xmlns="http://www.w3.org/2000/svg">
<path d="M26 3C26 1.34315 24.6569 -2.39048e-09 23 0C21.3431 2.39048e-09 20 1.34315 20 3L26 3ZM20.8787 106.121C22.0503 107.293 23.9497 107.293 25.1213 106.121L44.2132 87.0294C45.3848 85.8579 45.3848 83.9584 44.2132 82.7868C43.0416 81.6152 41.1421 81.6152 39.9706 82.7868L23 99.7574L6.02944 82.7868C4.85786 81.6152 2.95837 81.6152 1.7868 82.7868C0.615223 83.9584 0.615223 85.8579 1.7868 87.0294L20.8787 106.121ZM20 3L20 104L26 104L26 3L20 3Z" fill="black" fill-opacity="0.7"/>
</svg>
