<svg width="160" height="160" viewBox="0 0 160 160" fill="none" xmlns="http://www.w3.org/2000/svg">
<g filter="url(#filter0_d_189_330)">
<path fill-rule="evenodd" clip-rule="evenodd" d="M18.1326 30.9146C15.4131 31.3941 13.5973 33.9874 14.0768 36.7069L17.5498 56.403C18.0293 59.1225 20.6226 60.9383 23.342 60.4588L58.9574 54.1788C62.0189 53.639 64.8257 55.9942 64.8257 59.1029V145.268C64.8257 148.029 67.0643 150.268 69.8257 150.268H89.8257C92.5871 150.268 94.8257 148.029 94.8257 145.268V52.0498C94.8257 49.6233 96.5678 47.5471 98.9574 47.1258L141.519 39.621C144.238 39.1415 146.054 36.5482 145.575 33.8287L142.102 14.1326C141.622 11.4131 139.029 9.59728 136.31 10.0768L18.1326 30.9146Z" fill="url(#paint0_linear_189_330)" shape-rendering="crispEdges"/>
</g>
<defs>
<filter id="filter0_d_189_330" x="14" y="10" width="140.651" height="144.268" filterUnits="userSpaceOnUse" color-interpolation-filters="sRGB">
<feFlood flood-opacity="0" result="BackgroundImageFix"/>
<feColorMatrix in="SourceAlpha" type="matrix" values="0 0 0 0 0 0 0 0 0 0 0 0 0 0 0 0 0 0 127 0" result="hardAlpha"/>
<feOffset dx="9" dy="4"/>
<feComposite in2="hardAlpha" operator="out"/>
<feColorMatrix type="matrix" values="0 0 0 0 0.554167 0 0 0 0 0.554167 0 0 0 0 0.554167 0 0 0 0.5 0"/>
<feBlend mode="normal" in2="BackgroundImageFix" result="effect1_dropShadow_189_330"/>
<feBlend mode="normal" in="SourceGraphic" in2="effect1_dropShadow_189_330" result="shape"/>
</filter>
<linearGradient id="paint0_linear_189_330" x1="80" y1="24" x2="79.8258" y2="150.268" gradientUnits="userSpaceOnUse">
<stop stop-color="#2BE1AA"/>
<stop offset="1" stop-color="#3AD9D3" stop-opacity="0.62"/>
</linearGradient>
</defs>
</svg>
